<mxfile host="Electron" modified="2024-02-10T21:36:58.895Z" agent="Mozilla/5.0 (Windows NT 10.0; Win64; x64) AppleWebKit/537.36 (KHTML, like Gecko) draw.io/23.0.2 Chrome/120.0.6099.109 Electron/28.1.0 Safari/537.36" etag="MQM4PhXiWcr_YVYpnXF0" version="23.0.2" type="device">
  <diagram name="Страница — 1" id="lwFxoNZVOsWcV77fsAZV">
    <mxGraphModel dx="1221" dy="823" grid="1" gridSize="10" guides="1" tooltips="1" connect="1" arrows="1" fold="1" page="1" pageScale="1" pageWidth="827" pageHeight="1169" math="0" shadow="0">
      <root>
        <mxCell id="0" />
        <mxCell id="1" parent="0" />
        <mxCell id="IgeLQids6hlCfI4V9-Eq-91" value="" style="rounded=1;whiteSpace=wrap;html=1;fillColor=#f5f5f5;strokeColor=#666666;fontColor=#333333;" parent="1" vertex="1">
          <mxGeometry x="180" y="480" width="390" height="400" as="geometry" />
        </mxCell>
        <mxCell id="IgeLQids6hlCfI4V9-Eq-97" value="" style="ellipse;whiteSpace=wrap;html=1;" parent="1" vertex="1">
          <mxGeometry x="283" y="470" width="20" height="20" as="geometry" />
        </mxCell>
        <mxCell id="IgeLQids6hlCfI4V9-Eq-98" value="" style="endArrow=classic;html=1;rounded=1;exitX=0.5;exitY=1;exitDx=0;exitDy=0;entryX=0.5;entryY=0;entryDx=0;entryDy=0;curved=0;" parent="1" source="IgeLQids6hlCfI4V9-Eq-97" target="gaqFN2lzKPNnljJ36ulY-1" edge="1">
          <mxGeometry width="50" height="50" relative="1" as="geometry">
            <mxPoint x="468" y="993" as="sourcePoint" />
            <mxPoint x="293" y="510" as="targetPoint" />
          </mxGeometry>
        </mxCell>
        <mxCell id="gaqFN2lzKPNnljJ36ulY-1" value="Валидация данных (на клиенте)" style="rounded=1;whiteSpace=wrap;html=1;fillColor=#fff2cc;strokeColor=#d6b656;" parent="1" vertex="1">
          <mxGeometry x="233" y="510" width="120" height="60" as="geometry" />
        </mxCell>
        <mxCell id="gaqFN2lzKPNnljJ36ulY-4" value="" style="rhombus;whiteSpace=wrap;html=1;" parent="1" vertex="1">
          <mxGeometry x="442" y="532.5" width="30" height="15" as="geometry" />
        </mxCell>
        <mxCell id="gaqFN2lzKPNnljJ36ulY-5" value="" style="endArrow=classic;html=1;rounded=1;exitX=0.5;exitY=0;exitDx=0;exitDy=0;curved=0;entryX=0.5;entryY=1;entryDx=0;entryDy=0;" parent="1" source="gaqFN2lzKPNnljJ36ulY-4" target="T5PeXDJu_IvsG-I7Y7gK-2" edge="1">
          <mxGeometry width="50" height="50" relative="1" as="geometry">
            <mxPoint x="550" y="345" as="sourcePoint" />
            <mxPoint x="458" y="490" as="targetPoint" />
          </mxGeometry>
        </mxCell>
        <mxCell id="gaqFN2lzKPNnljJ36ulY-7" value="" style="endArrow=classic;html=1;rounded=1;exitX=1;exitY=0.5;exitDx=0;exitDy=0;entryX=0;entryY=0.5;entryDx=0;entryDy=0;curved=0;" parent="1" source="gaqFN2lzKPNnljJ36ulY-1" target="gaqFN2lzKPNnljJ36ulY-4" edge="1">
          <mxGeometry width="50" height="50" relative="1" as="geometry">
            <mxPoint x="550" y="345" as="sourcePoint" />
            <mxPoint x="770" y="345" as="targetPoint" />
          </mxGeometry>
        </mxCell>
        <mxCell id="gaqFN2lzKPNnljJ36ulY-9" value="[ошибка]" style="edgeLabel;html=1;align=center;verticalAlign=middle;resizable=0;points=[];" parent="gaqFN2lzKPNnljJ36ulY-7" vertex="1" connectable="0">
          <mxGeometry x="-0.0094" y="3" relative="1" as="geometry">
            <mxPoint y="-4" as="offset" />
          </mxGeometry>
        </mxCell>
        <mxCell id="gaqFN2lzKPNnljJ36ulY-10" value="Валидация данных (на сервере)" style="rounded=1;whiteSpace=wrap;html=1;fillColor=#fff2cc;strokeColor=#d6b656;" parent="1" vertex="1">
          <mxGeometry x="233" y="630" width="120" height="60" as="geometry" />
        </mxCell>
        <mxCell id="gaqFN2lzKPNnljJ36ulY-11" value="" style="endArrow=classic;html=1;rounded=1;exitX=0.5;exitY=1;exitDx=0;exitDy=0;entryX=0.5;entryY=0;entryDx=0;entryDy=0;curved=0;" parent="1" source="gaqFN2lzKPNnljJ36ulY-1" target="gaqFN2lzKPNnljJ36ulY-10" edge="1">
          <mxGeometry width="50" height="50" relative="1" as="geometry">
            <mxPoint x="293" y="570" as="sourcePoint" />
            <mxPoint x="770" y="465" as="targetPoint" />
          </mxGeometry>
        </mxCell>
        <mxCell id="gaqFN2lzKPNnljJ36ulY-12" value="[ok]" style="edgeLabel;html=1;align=center;verticalAlign=middle;resizable=0;points=[];" parent="gaqFN2lzKPNnljJ36ulY-11" vertex="1" connectable="0">
          <mxGeometry x="-0.0186" y="1" relative="1" as="geometry">
            <mxPoint x="11" y="-9" as="offset" />
          </mxGeometry>
        </mxCell>
        <mxCell id="gaqFN2lzKPNnljJ36ulY-13" value="" style="rhombus;whiteSpace=wrap;html=1;" parent="1" vertex="1">
          <mxGeometry x="442" y="652.5" width="30" height="15" as="geometry" />
        </mxCell>
        <mxCell id="gaqFN2lzKPNnljJ36ulY-14" value="" style="endArrow=classic;html=1;rounded=1;exitX=0.5;exitY=0;exitDx=0;exitDy=0;entryX=0.5;entryY=1;entryDx=0;entryDy=0;curved=0;" parent="1" source="gaqFN2lzKPNnljJ36ulY-13" target="gaqFN2lzKPNnljJ36ulY-4" edge="1">
          <mxGeometry width="50" height="50" relative="1" as="geometry">
            <mxPoint x="550" y="465" as="sourcePoint" />
            <mxPoint x="458" y="570" as="targetPoint" />
          </mxGeometry>
        </mxCell>
        <mxCell id="gaqFN2lzKPNnljJ36ulY-15" value="" style="endArrow=classic;html=1;rounded=1;exitX=1;exitY=0.5;exitDx=0;exitDy=0;entryX=0;entryY=0.5;entryDx=0;entryDy=0;curved=0;" parent="1" source="gaqFN2lzKPNnljJ36ulY-10" target="gaqFN2lzKPNnljJ36ulY-13" edge="1">
          <mxGeometry width="50" height="50" relative="1" as="geometry">
            <mxPoint x="550" y="465" as="sourcePoint" />
            <mxPoint x="770" y="465" as="targetPoint" />
          </mxGeometry>
        </mxCell>
        <mxCell id="gaqFN2lzKPNnljJ36ulY-16" value="[ошибка]" style="edgeLabel;html=1;align=center;verticalAlign=middle;resizable=0;points=[];" parent="gaqFN2lzKPNnljJ36ulY-15" vertex="1" connectable="0">
          <mxGeometry x="-0.0094" y="3" relative="1" as="geometry">
            <mxPoint y="-4" as="offset" />
          </mxGeometry>
        </mxCell>
        <mxCell id="gaqFN2lzKPNnljJ36ulY-24" value="Проверка UUID" style="rounded=1;whiteSpace=wrap;html=1;fillColor=#fff2cc;strokeColor=#d6b656;" parent="1" vertex="1">
          <mxGeometry x="233" y="749.5" width="120" height="60" as="geometry" />
        </mxCell>
        <mxCell id="gaqFN2lzKPNnljJ36ulY-25" value="" style="endArrow=classic;html=1;rounded=1;exitX=0.5;exitY=1;exitDx=0;exitDy=0;entryX=0.5;entryY=0;entryDx=0;entryDy=0;curved=0;" parent="1" source="gaqFN2lzKPNnljJ36ulY-10" target="gaqFN2lzKPNnljJ36ulY-24" edge="1">
          <mxGeometry width="50" height="50" relative="1" as="geometry">
            <mxPoint x="293" y="689.5" as="sourcePoint" />
            <mxPoint x="770" y="584.5" as="targetPoint" />
          </mxGeometry>
        </mxCell>
        <mxCell id="gaqFN2lzKPNnljJ36ulY-26" value="[ok]" style="edgeLabel;html=1;align=center;verticalAlign=middle;resizable=0;points=[];" parent="gaqFN2lzKPNnljJ36ulY-25" vertex="1" connectable="0">
          <mxGeometry x="-0.0186" y="1" relative="1" as="geometry">
            <mxPoint x="11" y="-9" as="offset" />
          </mxGeometry>
        </mxCell>
        <mxCell id="gaqFN2lzKPNnljJ36ulY-29" value="" style="endArrow=classic;html=1;rounded=1;exitX=1;exitY=0.5;exitDx=0;exitDy=0;entryX=0.5;entryY=1;entryDx=0;entryDy=0;curved=0;" parent="1" source="gaqFN2lzKPNnljJ36ulY-24" target="gaqFN2lzKPNnljJ36ulY-13" edge="1">
          <mxGeometry width="50" height="50" relative="1" as="geometry">
            <mxPoint x="550" y="584.5" as="sourcePoint" />
            <mxPoint x="442" y="779.5" as="targetPoint" />
            <Array as="points">
              <mxPoint x="457" y="780" />
            </Array>
          </mxGeometry>
        </mxCell>
        <mxCell id="gaqFN2lzKPNnljJ36ulY-30" value="[else]" style="edgeLabel;html=1;align=center;verticalAlign=middle;resizable=0;points=[];" parent="gaqFN2lzKPNnljJ36ulY-29" vertex="1" connectable="0">
          <mxGeometry x="-0.0094" y="3" relative="1" as="geometry">
            <mxPoint x="-54" y="-7" as="offset" />
          </mxGeometry>
        </mxCell>
        <mxCell id="gaqFN2lzKPNnljJ36ulY-38" value="" style="endArrow=classic;html=1;rounded=1;entryX=0.5;entryY=0;entryDx=0;entryDy=0;curved=0;" parent="1" target="gaqFN2lzKPNnljJ36ulY-44" edge="1">
          <mxGeometry width="50" height="50" relative="1" as="geometry">
            <mxPoint x="293" y="810" as="sourcePoint" />
            <mxPoint x="293" y="868.4999999999998" as="targetPoint" />
          </mxGeometry>
        </mxCell>
        <mxCell id="gaqFN2lzKPNnljJ36ulY-39" value="[UUID соотвествует почте]" style="edgeLabel;html=1;align=center;verticalAlign=middle;resizable=0;points=[];" parent="gaqFN2lzKPNnljJ36ulY-38" vertex="1" connectable="0">
          <mxGeometry x="-0.0186" y="1" relative="1" as="geometry">
            <mxPoint x="66" y="-9" as="offset" />
          </mxGeometry>
        </mxCell>
        <mxCell id="gaqFN2lzKPNnljJ36ulY-44" value="" style="shape=sumEllipse;perimeter=ellipsePerimeter;html=1;backgroundOutline=1;" parent="1" vertex="1">
          <mxGeometry x="283" y="870" width="20" height="20" as="geometry" />
        </mxCell>
        <mxCell id="T5PeXDJu_IvsG-I7Y7gK-2" value="" style="shape=sumEllipse;perimeter=ellipsePerimeter;html=1;backgroundOutline=1;" parent="1" vertex="1">
          <mxGeometry x="447" y="470" width="20" height="20" as="geometry" />
        </mxCell>
        <mxCell id="T5PeXDJu_IvsG-I7Y7gK-4" value="провал" style="text;html=1;strokeColor=none;fillColor=none;align=center;verticalAlign=middle;whiteSpace=wrap;rounded=0;" parent="1" vertex="1">
          <mxGeometry x="447" y="450" width="60" height="30" as="geometry" />
        </mxCell>
        <mxCell id="T5PeXDJu_IvsG-I7Y7gK-5" value="успех" style="text;html=1;strokeColor=none;fillColor=none;align=center;verticalAlign=middle;whiteSpace=wrap;rounded=0;" parent="1" vertex="1">
          <mxGeometry x="250" y="880" width="37" height="30" as="geometry" />
        </mxCell>
      </root>
    </mxGraphModel>
  </diagram>
</mxfile>
